<svg xmlns="http://www.w3.org/2000/svg" width="399" height="180" fill="none" viewBox="0 0 399 180">
  <rect width="398" height="179" x=".5" y=".5" stroke="#000" stroke-opacity=".5" rx="3.5"/>
  <path stroke="#000" d="M0 89.5h399" opacity=".5"/>
  <g clip-path="url(#a)">
    <path stroke="#000" stroke-linecap="round" stroke-linejoin="round" stroke-width="2" d="M27.667 60.667a3.333 3.333 0 1 0 0-6.667 3.333 3.333 0 0 0 0 6.667Zm16.666 0a3.333 3.333 0 1 0 0-6.667 3.333 3.333 0 0 0 0 6.667Z"/>
    <path stroke="#000" stroke-linecap="round" stroke-linejoin="round" stroke-width="2" d="M24.334 57.334h-1.333a2 2 0 0 1-2-2v-4.667m-1.667-13.334h16.333a2 2 0 0 1 2 2v18m-6.666 0h10m6.666 0h1.334a2 2 0 0 0 2-2v-8m0 0H37.667m13.334 0-4.418-7.362a2 2 0 0 0-1.715-.97h-7.2"/>
    <path stroke="#000" stroke-linecap="round" stroke-linejoin="round" stroke-width="2" d="M24 57h-1.333a2 2 0 0 1-2-2v-4.667M19 37h16.333a2 2 0 0 1 2 2v18M31 57h9.667M48 57h.667a2 2 0 0 0 2-2v-8m0 0H37.333m13.334 0-4.418-7.362a2 2 0 0 0-1.715-.971h-7.2M21 40.818h6.667m-9.849 3.637h6.667M21 48.09h6.667"/>
  </g>
  <path fill="#000" d="M79.744 30.88v1.488h-4.72v3.28h3.68v1.488h-3.68V42H73.2V30.88h6.544Zm3.514 3.584a2.82 2.82 0 0 1 1.056-1.04c.448-.256.976-.384 1.584-.384v1.888h-.464c-.714 0-1.258.181-1.632.544-.362.363-.544.992-.544 1.888V42h-1.824v-8.816h1.824v1.28Zm12.397 2.912c0 .33-.021.63-.064.896h-6.736c.053.704.315 1.27.784 1.696.47.427 1.045.64 1.728.64.981 0 1.675-.41 2.08-1.232h1.968a3.998 3.998 0 0 1-1.456 2c-.693.512-1.557.768-2.592.768-.843 0-1.6-.187-2.272-.56a4.185 4.185 0 0 1-1.568-1.6c-.373-.693-.56-1.493-.56-2.4 0-.907.181-1.701.544-2.384a3.936 3.936 0 0 1 1.552-1.6c.672-.373 1.44-.56 2.304-.56.832 0 1.573.181 2.224.544a3.83 3.83 0 0 1 1.52 1.536c.363.65.544 1.403.544 2.256Zm-1.904-.576c-.01-.672-.25-1.21-.72-1.616-.47-.405-1.05-.608-1.744-.608-.63 0-1.168.203-1.616.608-.448.395-.715.933-.8 1.616h4.88Zm11.779.576c0 .33-.021.63-.064.896H98.73c.053.704.315 1.27.784 1.696.47.427 1.045.64 1.728.64.981 0 1.675-.41 2.08-1.232h1.968a4 4 0 0 1-1.456 2c-.693.512-1.557.768-2.592.768-.843 0-1.6-.187-2.272-.56a4.185 4.185 0 0 1-1.568-1.6c-.373-.693-.56-1.493-.56-2.4 0-.907.181-1.701.544-2.384a3.936 3.936 0 0 1 1.552-1.6c.672-.373 1.44-.56 2.304-.56.832 0 1.573.181 2.224.544a3.83 3.83 0 0 1 1.52 1.536c.363.65.544 1.403.544 2.256Zm-1.904-.576c-.011-.672-.251-1.21-.72-1.616-.469-.405-1.051-.608-1.744-.608-.629 0-1.168.203-1.616.608-.448.395-.715.933-.8 1.616h4.88Zm11.487-5.92c1.184 0 2.219.23 3.104.688a4.744 4.744 0 0 1 2.064 1.952c.491.843.736 1.83.736 2.96s-.245 2.112-.736 2.944c-.48.832-1.168 1.472-2.064 1.92-.885.437-1.92.656-3.104.656h-3.632V30.88h3.632Zm0 9.632c1.302 0 2.299-.352 2.992-1.056.694-.704 1.04-1.696 1.04-2.976 0-1.29-.346-2.299-1.04-3.024-.693-.725-1.69-1.088-2.992-1.088h-1.808v8.144h1.808Zm15.792-3.136c0 .33-.021.63-.064.896h-6.736c.053.704.315 1.27.784 1.696.469.427 1.045.64 1.728.64.981 0 1.675-.41 2.08-1.232h1.968a4 4 0 0 1-1.456 2c-.693.512-1.557.768-2.592.768-.843 0-1.6-.187-2.272-.56a4.187 4.187 0 0 1-1.568-1.6c-.373-.693-.56-1.493-.56-2.4 0-.907.181-1.701.544-2.384a3.936 3.936 0 0 1 1.552-1.6c.672-.373 1.44-.56 2.304-.56.832 0 1.573.181 2.224.544a3.83 3.83 0 0 1 1.52 1.536c.363.65.544 1.403.544 2.256Zm-1.904-.576c-.011-.672-.251-1.21-.72-1.616-.469-.405-1.051-.608-1.744-.608-.629 0-1.168.203-1.616.608-.448.395-.715.933-.8 1.616h4.88Zm5.523-6.64V42H132.7V30.16h1.824Zm3.323 1.856a1.13 1.13 0 0 1-.832-.336 1.13 1.13 0 0 1-.336-.832c0-.33.112-.608.336-.832a1.13 1.13 0 0 1 .832-.336c.32 0 .592.112.816.336.224.224.336.501.336.832 0 .33-.112.608-.336.832a1.11 1.11 0 0 1-.816.336Zm.896 1.168V42h-1.824v-8.816h1.824Zm5.803 7.184 2.496-7.184h1.935L145.618 42h-2.176l-3.344-8.816h1.951l2.497 7.184Zm13.89-2.992c0 .33-.021.63-.064.896h-6.736c.054.704.315 1.27.784 1.696.47.427 1.046.64 1.728.64.982 0 1.675-.41 2.08-1.232h1.968a3.994 3.994 0 0 1-1.456 2c-.693.512-1.557.768-2.592.768-.842 0-1.6-.187-2.272-.56a4.187 4.187 0 0 1-1.568-1.6c-.373-.693-.56-1.493-.56-2.4 0-.907.182-1.701.544-2.384a3.942 3.942 0 0 1 1.552-1.6c.672-.373 1.44-.56 2.304-.56.832 0 1.574.181 2.224.544a3.825 3.825 0 0 1 1.52 1.536c.363.65.544 1.403.544 2.256Zm-1.904-.576c-.01-.672-.25-1.21-.72-1.616-.469-.405-1.05-.608-1.744-.608-.629 0-1.168.203-1.616.608-.448.395-.714.933-.8 1.616h4.88Zm5.523-2.336a2.826 2.826 0 0 1 1.056-1.04c.448-.256.976-.384 1.584-.384v1.888h-.464c-.714 0-1.258.181-1.632.544-.362.363-.544.992-.544 1.888V42h-1.824v-8.816h1.824v1.28Zm12.253-1.28-5.408 12.96h-1.888l1.792-4.288-3.472-8.672h2.032l2.48 6.72 2.576-6.72h1.888Zm-100.04 28.58v2.448h2.88v1.116h-2.88v2.556h3.24V69H72.9v-8.352h4.608v1.116h-3.24Zm8.261.516c.52 0 .984.108 1.392.324.416.216.74.536.972.96.232.424.348.936.348 1.536V69h-1.356v-3.696c0-.592-.148-1.044-.444-1.356-.296-.32-.7-.48-1.212-.48s-.92.16-1.224.48c-.296.312-.444.764-.444 1.356V69h-1.368v-6.612h1.368v.756c.224-.272.508-.484.852-.636a2.785 2.785 0 0 1 1.116-.228Zm6.053 1.224v3.66c0 .248.056.428.168.54.12.104.32.156.6.156h.84V69h-1.08c-.616 0-1.088-.144-1.416-.432-.328-.288-.492-.756-.492-1.404v-3.66h-.78v-1.116h.78v-1.644h1.38v1.644h1.608v1.116h-1.608Zm8.929 2.028c0 .248-.016.472-.048.672H92.41c.04.528.236.952.588 1.272.352.32.784.48 1.296.48.736 0 1.256-.308 1.56-.924h1.476a2.998 2.998 0 0 1-1.092 1.5c-.52.384-1.168.576-1.944.576-.632 0-1.2-.14-1.704-.42a3.139 3.139 0 0 1-1.176-1.2c-.28-.52-.42-1.12-.42-1.8 0-.68.136-1.276.408-1.788.28-.52.668-.92 1.164-1.2.504-.28 1.08-.42 1.728-.42.624 0 1.18.136 1.668.408.488.272.868.656 1.14 1.152.272.488.408 1.052.408 1.692Zm-1.428-.432c-.008-.504-.188-.908-.54-1.212-.352-.304-.788-.456-1.308-.456-.472 0-.876.152-1.212.456-.336.296-.536.7-.6 1.212h3.66Zm4.142-1.752c.2-.336.464-.596.792-.78.336-.192.732-.288 1.188-.288v1.416h-.348c-.536 0-.944.136-1.224.408-.272.272-.408.744-.408 1.416V69h-1.368v-6.612h1.368v.96Zm12.307-.96-4.056 9.72h-1.416l1.344-3.216-2.604-6.504h1.524l1.86 5.04 1.932-5.04h1.416Zm3.9 6.72c-.624 0-1.188-.14-1.692-.42a3.113 3.113 0 0 1-1.188-1.2c-.288-.52-.432-1.12-.432-1.8 0-.672.148-1.268.444-1.788.296-.52.7-.92 1.212-1.2a3.517 3.517 0 0 1 1.716-.42c.632 0 1.204.14 1.716.42.512.28.916.68 1.212 1.2.296.52.444 1.116.444 1.788 0 .672-.152 1.268-.456 1.788-.304.52-.72.924-1.248 1.212-.52.28-1.096.42-1.728.42Zm0-1.188c.352 0 .68-.084.984-.252.312-.168.564-.42.756-.756.192-.336.288-.744.288-1.224s-.092-.884-.276-1.212a1.855 1.855 0 0 0-.732-.756 2.002 2.002 0 0 0-.984-.252c-.352 0-.68.084-.984.252-.296.168-.532.42-.708.756-.176.328-.264.732-.264 1.212 0 .712.18 1.264.54 1.656.368.384.828.576 1.38.576Zm10.772-5.532V69h-1.368v-.78c-.216.272-.5.488-.852.648a2.7 2.7 0 0 1-1.104.228c-.52 0-.988-.108-1.404-.324a2.388 2.388 0 0 1-.972-.96c-.232-.424-.348-.936-.348-1.536v-3.888h1.356v3.684c0 .592.148 1.048.444 1.368.296.312.7.468 1.212.468s.916-.156 1.212-.468c.304-.32.456-.776.456-1.368v-3.684h1.368Zm3.173.96c.2-.336.464-.596.792-.78.336-.192.732-.288 1.188-.288v1.416h-.348c-.536 0-.944.136-1.224.408-.272.272-.408.744-.408 1.416V69h-1.368v-6.612h1.368v.96Zm7.723.012a2.78 2.78 0 0 1 .948-.768c.4-.208.852-.312 1.356-.312.576 0 1.1.144 1.572.432.48.28.856.676 1.128 1.188.272.512.408 1.1.408 1.764 0 .664-.136 1.26-.408 1.788-.272.52-.648.928-1.128 1.224a2.96 2.96 0 0 1-1.572.432c-.504 0-.952-.1-1.344-.3a3.083 3.083 0 0 1-.96-.768v4.104h-1.368v-9.756h1.368v.972Zm4.02 2.304c0-.456-.096-.848-.288-1.176a1.832 1.832 0 0 0-.744-.756 1.974 1.974 0 0 0-1.968 0 2.022 2.022 0 0 0-.744.768c-.184.336-.276.732-.276 1.188 0 .456.092.856.276 1.2.192.336.44.592.744.768a1.974 1.974 0 0 0 1.968 0c.312-.184.56-.448.744-.792.192-.344.288-.744.288-1.2Zm5.613 3.444c-.624 0-1.188-.14-1.692-.42a3.113 3.113 0 0 1-1.188-1.2c-.288-.52-.432-1.12-.432-1.8 0-.672.148-1.268.444-1.788.296-.52.7-.92 1.212-1.2a3.517 3.517 0 0 1 1.716-.42c.632 0 1.204.14 1.716.42.512.28.916.68 1.212 1.2.296.52.444 1.116.444 1.788 0 .672-.152 1.268-.456 1.788-.304.52-.72.924-1.248 1.212-.52.28-1.096.42-1.728.42Zm0-1.188c.352 0 .68-.084.984-.252.312-.168.564-.42.756-.756.192-.336.288-.744.288-1.224s-.092-.884-.276-1.212a1.855 1.855 0 0 0-.732-.756 2.002 2.002 0 0 0-.984-.252c-.352 0-.68.084-.984.252-.296.168-.532.42-.708.756-.176.328-.264.732-.264 1.212 0 .712.18 1.264.54 1.656.368.384.828.576 1.38.576Zm7.184 1.188c-.52 0-.988-.092-1.404-.276a2.536 2.536 0 0 1-.972-.768 1.943 1.943 0 0 1-.384-1.092h1.416a.99.99 0 0 0 .396.708c.248.184.556.276.924.276.384 0 .68-.072.888-.216.216-.152.324-.344.324-.576 0-.248-.12-.432-.36-.552-.232-.12-.604-.252-1.116-.396a10.83 10.83 0 0 1-1.212-.396 2.176 2.176 0 0 1-.816-.588c-.224-.264-.336-.612-.336-1.044 0-.352.104-.672.312-.96.208-.296.504-.528.888-.696.392-.168.84-.252 1.344-.252.752 0 1.356.192 1.812.576.464.376.712.892.744 1.548h-1.368a.974.974 0 0 0-.36-.708c-.216-.176-.508-.264-.876-.264-.36 0-.636.068-.828.204a.632.632 0 0 0-.288.54c0 .176.064.324.192.444s.284.216.468.288c.184.064.456.148.816.252.48.128.872.26 1.176.396.312.128.58.32.804.576.224.256.34.596.348 1.02 0 .376-.104.712-.312 1.008-.208.296-.504.528-.888.696-.376.168-.82.252-1.332.252Zm5.606-5.604v3.66c0 .248.056.428.168.54.12.104.32.156.6.156h.84V69h-1.08c-.616 0-1.088-.144-1.416-.432-.328-.288-.492-.756-.492-1.404v-3.66h-.78v-1.116h.78v-1.644h1.38v1.644h1.608v1.116h-1.608Zm2.413 2.16c0-.664.136-1.252.408-1.764a3.047 3.047 0 0 1 2.712-1.62c.52 0 .972.104 1.356.312.392.2.704.452.936.756v-.96h1.38V69h-1.38v-.984a2.717 2.717 0 0 1-.948.78c-.4.208-.856.312-1.368.312a2.938 2.938 0 0 1-1.56-.432 3.206 3.206 0 0 1-1.128-1.224c-.272-.528-.408-1.124-.408-1.788Zm5.412.024c0-.456-.096-.852-.288-1.188a1.938 1.938 0 0 0-.732-.768 1.93 1.93 0 0 0-.984-.264c-.352 0-.68.088-.984.264-.304.168-.552.42-.744.756-.184.328-.276.72-.276 1.176 0 .456.092.856.276 1.2.192.344.44.608.744.792a1.974 1.974 0 0 0 1.968 0c.304-.176.548-.432.732-.768.192-.344.288-.744.288-1.2Zm4.545-5.568V69h-1.368v-8.88h1.368Zm4.457 5.568c0-.68.136-1.276.408-1.788.28-.52.664-.92 1.152-1.2.488-.28 1.048-.42 1.68-.42.8 0 1.46.192 1.98.576.528.376.884.916 1.068 1.62h-1.476a1.56 1.56 0 0 0-.576-.768c-.264-.184-.596-.276-.996-.276-.56 0-1.008.2-1.344.6-.328.392-.492.944-.492 1.656s.164 1.268.492 1.668c.336.4.784.6 1.344.6.792 0 1.316-.348 1.572-1.044h1.476c-.192.672-.552 1.208-1.08 1.608-.528.392-1.184.588-1.968.588-.632 0-1.192-.14-1.68-.42a3.08 3.08 0 0 1-1.152-1.2c-.272-.52-.408-1.12-.408-1.8Zm10.52 3.42c-.624 0-1.188-.14-1.692-.42a3.113 3.113 0 0 1-1.188-1.2c-.288-.52-.432-1.12-.432-1.8 0-.672.148-1.268.444-1.788.296-.52.7-.92 1.212-1.2a3.517 3.517 0 0 1 1.716-.42c.632 0 1.204.14 1.716.42.512.28.916.68 1.212 1.2.296.52.444 1.116.444 1.788 0 .672-.152 1.268-.456 1.788-.304.52-.72.924-1.248 1.212-.52.28-1.096.42-1.728.42Zm0-1.188c.352 0 .68-.084.984-.252.312-.168.564-.42.756-.756.192-.336.288-.744.288-1.224s-.092-.884-.276-1.212a1.855 1.855 0 0 0-.732-.756 2.002 2.002 0 0 0-.984-.252c-.352 0-.68.084-.984.252-.296.168-.532.42-.708.756-.176.328-.264.732-.264 1.212 0 .712.18 1.264.54 1.656.368.384.828.576 1.38.576Zm4.328-2.256c0-.664.136-1.252.408-1.764a3.047 3.047 0 0 1 2.724-1.62c.432 0 .856.096 1.272.288.424.184.76.432 1.008.744V60.12h1.38V69h-1.38v-.996a2.55 2.55 0 0 1-.936.792c-.392.208-.844.312-1.356.312a3.021 3.021 0 0 1-1.584-.432 3.206 3.206 0 0 1-1.128-1.224c-.272-.528-.408-1.124-.408-1.788Zm5.412.024c0-.456-.096-.852-.288-1.188a1.938 1.938 0 0 0-.732-.768 1.93 1.93 0 0 0-.984-.264c-.352 0-.68.088-.984.264-.304.168-.552.42-.744.756-.184.328-.276.72-.276 1.176 0 .456.092.856.276 1.2.192.344.44.608.744.792a1.974 1.974 0 0 0 1.968 0c.304-.176.548-.432.732-.768.192-.344.288-.744.288-1.2Zm9.237-.156c0 .248-.016.472-.048.672h-5.052c.04.528.236.952.588 1.272.352.32.784.48 1.296.48.736 0 1.256-.308 1.56-.924h1.476a2.998 2.998 0 0 1-1.092 1.5c-.52.384-1.168.576-1.944.576-.632 0-1.2-.14-1.704-.42a3.139 3.139 0 0 1-1.176-1.2c-.28-.52-.42-1.12-.42-1.8 0-.68.136-1.276.408-1.788.28-.52.668-.92 1.164-1.2.504-.28 1.08-.42 1.728-.42.624 0 1.18.136 1.668.408.488.272.868.656 1.14 1.152.272.488.408 1.052.408 1.692Zm-1.428-.432c-.008-.504-.188-.908-.54-1.212-.352-.304-.788-.456-1.308-.456-.472 0-.876.152-1.212.456-.336.296-.536.7-.6 1.212h3.66Zm8.663-1.596h-1.224V69h-1.38v-5.496h-.78v-1.116h.78v-.468c0-.76.2-1.312.6-1.656.408-.352 1.044-.528 1.908-.528v1.14c-.416 0-.708.08-.876.24-.168.152-.252.42-.252.804v.468h1.224v1.116Zm4.081 5.604c-.624 0-1.188-.14-1.692-.42a3.113 3.113 0 0 1-1.188-1.2c-.288-.52-.432-1.12-.432-1.8 0-.672.148-1.268.444-1.788.296-.52.7-.92 1.212-1.2a3.517 3.517 0 0 1 1.716-.42c.632 0 1.204.14 1.716.42.512.28.916.68 1.212 1.2.296.52.444 1.116.444 1.788 0 .672-.152 1.268-.456 1.788-.304.52-.72.924-1.248 1.212-.52.28-1.096.42-1.728.42Zm0-1.188c.352 0 .68-.084.984-.252.312-.168.564-.42.756-.756.192-.336.288-.744.288-1.224s-.092-.884-.276-1.212a1.855 1.855 0 0 0-.732-.756 2.002 2.002 0 0 0-.984-.252c-.352 0-.68.084-.984.252-.296.168-.532.42-.708.756-.176.328-.264.732-.264 1.212 0 .712.18 1.264.54 1.656.368.384.828.576 1.38.576Zm6.152-4.572c.2-.336.464-.596.792-.78.336-.192.732-.288 1.188-.288v1.416h-.348c-.536 0-.944.136-1.224.408-.272.272-.408.744-.408 1.416V69h-1.368v-6.612h1.368v.96Zm9.079-2.688c.888 0 1.664.172 2.328.516a3.558 3.558 0 0 1 1.548 1.464c.368.632.552 1.372.552 2.22 0 .848-.184 1.584-.552 2.208a3.598 3.598 0 0 1-1.548 1.44c-.664.328-1.44.492-2.328.492h-2.724v-8.34h2.724Zm0 7.224c.976 0 1.724-.264 2.244-.792.52-.528.78-1.272.78-2.232 0-.968-.26-1.724-.78-2.268-.52-.544-1.268-.816-2.244-.816h-1.356v6.108h1.356Zm11.843-2.352c0 .248-.016.472-.048.672h-5.052c.04.528.236.952.588 1.272.352.32.784.48 1.296.48.736 0 1.256-.308 1.56-.924h1.476a2.998 2.998 0 0 1-1.092 1.5c-.52.384-1.168.576-1.944.576-.632 0-1.2-.14-1.704-.42a3.139 3.139 0 0 1-1.176-1.2c-.28-.52-.42-1.12-.42-1.8 0-.68.136-1.276.408-1.788.28-.52.668-.92 1.164-1.2.504-.28 1.08-.42 1.728-.42.624 0 1.18.136 1.668.408.488.272.868.656 1.14 1.152.272.488.408 1.052.408 1.692Zm-1.428-.432c-.008-.504-.188-.908-.54-1.212-.352-.304-.788-.456-1.308-.456-.472 0-.876.152-1.212.456-.336.296-.536.7-.6 1.212h3.66Zm4.143-4.98V69h-1.368v-8.88h1.368Zm2.492 1.392a.847.847 0 0 1-.624-.252.847.847 0 0 1-.252-.624c0-.248.084-.456.252-.624a.847.847 0 0 1 .624-.252c.24 0 .444.084.612.252a.847.847 0 0 1 .252.624.847.847 0 0 1-.252.624.833.833 0 0 1-.612.252Zm.672.876V69h-1.368v-6.612h1.368Zm4.352 5.388 1.872-5.388h1.452L256.272 69h-1.632l-2.508-6.612h1.464l1.872 5.388Zm10.418-2.244c0 .248-.016.472-.048.672h-5.052c.04.528.236.952.588 1.272.352.32.784.48 1.296.48.736 0 1.256-.308 1.56-.924h1.476a2.998 2.998 0 0 1-1.092 1.5c-.52.384-1.168.576-1.944.576-.632 0-1.2-.14-1.704-.42a3.139 3.139 0 0 1-1.176-1.2c-.28-.52-.42-1.12-.42-1.8 0-.68.136-1.276.408-1.788.28-.52.668-.92 1.164-1.2.504-.28 1.08-.42 1.728-.42.624 0 1.18.136 1.668.408.488.272.868.656 1.14 1.152.272.488.408 1.052.408 1.692Zm-1.428-.432c-.008-.504-.188-.908-.54-1.212-.352-.304-.788-.456-1.308-.456-.472 0-.876.152-1.212.456-.336.296-.536.7-.6 1.212h3.66Zm4.142-1.752c.2-.336.464-.596.792-.78.336-.192.732-.288 1.188-.288v1.416h-.348c-.536 0-.944.136-1.224.408-.272.272-.408.744-.408 1.416V69h-1.368v-6.612h1.368v.96Zm9.19-.96-4.056 9.72h-1.416l1.344-3.216-2.604-6.504h1.524l1.86 5.04 1.932-5.04h1.416Zm9.177 4.908h-3.492l-.6 1.704h-1.428l2.988-8.352h1.584L289.007 69h-1.44l-.6-1.704Zm-.384-1.116-1.356-3.876-1.368 3.876h2.724Zm6.279 1.596 1.872-5.388h1.452L293.666 69h-1.632l-2.508-6.612h1.464l1.872 5.388Zm3.902-2.112c0-.664.136-1.252.408-1.764a3.047 3.047 0 0 1 2.712-1.62c.52 0 .972.104 1.356.312.392.2.704.452.936.756v-.96h1.38V69h-1.38v-.984a2.717 2.717 0 0 1-.948.78c-.4.208-.856.312-1.368.312a2.938 2.938 0 0 1-1.56-.432 3.206 3.206 0 0 1-1.128-1.224c-.272-.528-.408-1.124-.408-1.788Zm5.412.024c0-.456-.096-.852-.288-1.188a1.938 1.938 0 0 0-.732-.768 1.93 1.93 0 0 0-.984-.264c-.352 0-.68.088-.984.264-.304.168-.552.42-.744.756-.184.328-.276.72-.276 1.176 0 .456.092.856.276 1.2.192.344.44.608.744.792a1.974 1.974 0 0 0 1.968 0c.304-.176.548-.432.732-.768.192-.344.288-.744.288-1.2Zm3.873-4.176a.847.847 0 0 1-.624-.252.847.847 0 0 1-.252-.624c0-.248.084-.456.252-.624a.847.847 0 0 1 .624-.252c.24 0 .444.084.612.252a.847.847 0 0 1 .252.624.847.847 0 0 1-.252.624.833.833 0 0 1-.612.252Zm.672.876V69h-1.368v-6.612h1.368Zm3.164-2.268V69h-1.368v-8.88h1.368Zm1.34 5.544c0-.664.136-1.252.408-1.764a3.047 3.047 0 0 1 2.712-1.62c.52 0 .972.104 1.356.312.392.2.704.452.936.756v-.96h1.38V69h-1.38v-.984a2.717 2.717 0 0 1-.948.78c-.4.208-.856.312-1.368.312a2.938 2.938 0 0 1-1.56-.432 3.206 3.206 0 0 1-1.128-1.224c-.272-.528-.408-1.124-.408-1.788Zm5.412.024c0-.456-.096-.852-.288-1.188a1.938 1.938 0 0 0-.732-.768 1.93 1.93 0 0 0-.984-.264c-.352 0-.68.088-.984.264-.304.168-.552.42-.744.756-.184.328-.276.72-.276 1.176 0 .456.092.856.276 1.2.192.344.44.608.744.792a1.974 1.974 0 0 0 1.968 0c.304-.176.548-.432.732-.768.192-.344.288-.744.288-1.2Zm4.545-2.316c.232-.32.548-.58.948-.78.408-.208.86-.312 1.356-.312.584 0 1.112.14 1.584.42.472.28.844.68 1.116 1.2.272.512.408 1.1.408 1.764 0 .664-.136 1.26-.408 1.788-.272.52-.648.928-1.128 1.224a2.96 2.96 0 0 1-1.572.432c-.512 0-.968-.1-1.368-.3a2.63 2.63 0 0 1-.936-.768V69h-1.368v-8.88h1.368v3.252Zm4.02 2.292c0-.456-.096-.848-.288-1.176a1.832 1.832 0 0 0-.744-.756 1.974 1.974 0 0 0-1.968 0 2.022 2.022 0 0 0-.744.768c-.184.336-.276.732-.276 1.188 0 .456.092.856.276 1.2.192.336.44.592.744.768a1.974 1.974 0 0 0 1.968 0c.312-.184.56-.448.744-.792.192-.344.288-.744.288-1.2Zm3.441-4.152a.847.847 0 0 1-.624-.252.847.847 0 0 1-.252-.624c0-.248.084-.456.252-.624a.847.847 0 0 1 .624-.252c.24 0 .444.084.612.252a.847.847 0 0 1 .252.624.847.847 0 0 1-.252.624.833.833 0 0 1-.612.252Zm.672.876V69h-1.368v-6.612h1.368Zm3.164-2.268V69h-1.368v-8.88h1.368Zm2.492 1.392a.847.847 0 0 1-.624-.252.847.847 0 0 1-.252-.624c0-.248.084-.456.252-.624a.847.847 0 0 1 .624-.252c.24 0 .444.084.612.252a.847.847 0 0 1 .252.624.847.847 0 0 1-.252.624.833.833 0 0 1-.612.252Zm.672.876V69h-1.368v-6.612h1.368Zm3.392 1.116v3.66c0 .248.056.428.168.54.12.104.32.156.6.156h.84V69h-1.08c-.616 0-1.088-.144-1.416-.432-.328-.288-.492-.756-.492-1.404v-3.66h-.78v-1.116h.78v-1.644h1.38v1.644h1.608v1.116h-1.608Zm8.821-1.116-4.056 9.72h-1.416l1.344-3.216-2.604-6.504h1.524l1.86 5.04 1.932-5.04h1.416Z"/>
  <path fill="#000" d="M72 70.2h275.988v.6H72v-.6Z"/>
  <g clip-path="url(#b)">
    <path stroke="#000" stroke-linecap="round" stroke-linejoin="round" stroke-width="2" d="M49.333 129.333A13.5 13.5 0 0 0 23.499 126m-.833-6.667V126h6.667m-6.667 6.667A13.5 13.5 0 0 0 48.499 136m.834 6.667V136h-6.667"/>
  </g>
  <path fill="#000" d="m78.976 124-2.56-4.448h-1.392V124H73.2v-11.12h3.84c.853 0 1.573.149 2.16.448.597.299 1.04.699 1.328 1.2.299.501.448 1.061.448 1.68 0 .725-.213 1.387-.64 1.984-.416.587-1.061.987-1.936 1.2L81.152 124h-2.176Zm-3.952-5.904h2.016c.683 0 1.195-.171 1.536-.512.352-.341.528-.8.528-1.376 0-.576-.17-1.024-.512-1.344-.341-.331-.859-.496-1.552-.496h-2.016v3.728Zm16.365 1.28c0 .331-.021.629-.064.896H84.59c.054.704.315 1.269.784 1.696.47.427 1.046.64 1.728.64.982 0 1.675-.411 2.08-1.232h1.968a3.998 3.998 0 0 1-1.456 2c-.693.512-1.557.768-2.592.768-.842 0-1.6-.187-2.272-.56a4.182 4.182 0 0 1-1.568-1.6c-.373-.693-.56-1.493-.56-2.4 0-.907.182-1.701.544-2.384a3.936 3.936 0 0 1 1.552-1.6c.672-.373 1.44-.56 2.304-.56.832 0 1.574.181 2.224.544a3.828 3.828 0 0 1 1.52 1.536c.363.651.544 1.403.544 2.256Zm-1.904-.576c-.01-.672-.25-1.211-.72-1.616-.469-.405-1.05-.608-1.744-.608-.629 0-1.168.203-1.616.608-.448.395-.714.933-.8 1.616h4.88Zm5.827-2.128v4.88c0 .331.075.571.224.72.16.139.427.208.8.208h1.12V124h-1.44c-.821 0-1.45-.192-1.888-.576-.437-.384-.656-1.008-.656-1.872v-4.88h-1.04v-1.488h1.04v-2.192h1.84v2.192h2.144v1.488h-2.144Zm11.81-1.488V124h-1.824v-1.04a3.006 3.006 0 0 1-1.136.864 3.6 3.6 0 0 1-1.472.304c-.694 0-1.318-.144-1.872-.432a3.187 3.187 0 0 1-1.296-1.28c-.31-.565-.465-1.248-.465-2.048v-5.184h1.809v4.912c0 .789.197 1.397.592 1.824.394.416.933.624 1.616.624.682 0 1.221-.208 1.616-.624.405-.427.608-1.035.608-1.824v-4.912h1.824Zm4.23 1.28a2.824 2.824 0 0 1 1.056-1.04c.448-.256.976-.384 1.584-.384v1.888h-.464c-.715 0-1.259.181-1.632.544-.363.363-.544.992-.544 1.888V124h-1.824v-8.816h1.824v1.28Zm8.765-1.424c.693 0 1.312.144 1.856.432a3.07 3.07 0 0 1 1.296 1.28c.309.565.464 1.248.464 2.048v5.2h-1.808v-4.928c0-.789-.198-1.392-.592-1.808-.395-.427-.934-.64-1.616-.64-.683 0-1.227.213-1.632.64-.395.416-.592 1.019-.592 1.808V124h-1.824v-8.816h1.824v1.008a3.025 3.025 0 0 1 1.136-.848 3.706 3.706 0 0 1 1.488-.304Zm13.731-2.16c1.184 0 2.218.229 3.104.688a4.746 4.746 0 0 1 2.064 1.952c.49.843.736 1.829.736 2.96s-.246 2.112-.736 2.944c-.48.832-1.168 1.472-2.064 1.92-.886.437-1.92.656-3.104.656h-3.632v-11.12h3.632Zm0 9.632c1.301 0 2.298-.352 2.992-1.056.693-.704 1.04-1.696 1.04-2.976 0-1.291-.347-2.299-1.04-3.024-.694-.725-1.691-1.088-2.992-1.088h-1.808v8.144h1.808Zm15.791-3.136c0 .331-.021.629-.064.896h-6.736c.054.704.315 1.269.784 1.696.47.427 1.046.64 1.728.64.982 0 1.675-.411 2.08-1.232h1.968a3.994 3.994 0 0 1-1.456 2c-.693.512-1.557.768-2.592.768-.842 0-1.6-.187-2.272-.56a4.185 4.185 0 0 1-1.568-1.6c-.373-.693-.56-1.493-.56-2.4 0-.907.182-1.701.544-2.384a3.942 3.942 0 0 1 1.552-1.6c.672-.373 1.44-.56 2.304-.56.832 0 1.574.181 2.224.544a3.828 3.828 0 0 1 1.52 1.536c.363.651.544 1.403.544 2.256Zm-1.904-.576c-.01-.672-.25-1.211-.72-1.616-.469-.405-1.05-.608-1.744-.608-.629 0-1.168.203-1.616.608-.448.395-.714.933-.8 1.616h4.88Zm5.523-6.64V124h-1.824v-11.84h1.824Zm3.323 1.856a1.13 1.13 0 0 1-.832-.336 1.13 1.13 0 0 1-.336-.832c0-.331.112-.608.336-.832a1.13 1.13 0 0 1 .832-.336c.32 0 .592.112.816.336.224.224.336.501.336.832 0 .331-.112.608-.336.832a1.11 1.11 0 0 1-.816.336Zm.896 1.168V124h-1.824v-8.816h1.824Zm5.803 7.184 2.496-7.184h1.936l-3.36 8.816h-2.176l-3.344-8.816h1.952l2.496 7.184Zm13.891-2.992c0 .331-.022.629-.064.896h-6.736c.053.704.314 1.269.784 1.696.469.427 1.045.64 1.728.64.981 0 1.674-.411 2.08-1.232h1.968a4 4 0 0 1-1.456 2c-.694.512-1.558.768-2.592.768-.843 0-1.6-.187-2.272-.56a4.178 4.178 0 0 1-1.568-1.6c-.374-.693-.56-1.493-.56-2.4 0-.907.181-1.701.544-2.384a3.93 3.93 0 0 1 1.552-1.6c.672-.373 1.44-.56 2.304-.56.832 0 1.573.181 2.224.544a3.84 3.84 0 0 1 1.52 1.536c.362.651.544 1.403.544 2.256Zm-1.904-.576c-.011-.672-.251-1.211-.72-1.616-.47-.405-1.051-.608-1.744-.608-.63 0-1.168.203-1.616.608-.448.395-.715.933-.8 1.616h4.88Zm5.523-2.336a2.81 2.81 0 0 1 1.056-1.04c.448-.256.976-.384 1.584-.384v1.888h-.464c-.715 0-1.259.181-1.632.544-.363.363-.544.992-.544 1.888V124h-1.824v-8.816h1.824v1.28Zm12.252-1.28-5.408 12.96h-1.888l1.792-4.288-3.472-8.672h2.032l2.48 6.72 2.576-6.72h1.888ZM77.808 142.66v1.116h-3.54v2.46h2.76v1.116h-2.76V151H72.9v-8.34h4.908Zm2.636 2.688c.2-.336.464-.596.792-.78.336-.192.732-.288 1.188-.288v1.416h-.348c-.536 0-.944.136-1.224.408-.272.272-.408.744-.408 1.416V151h-1.368v-6.612h1.368v.96Zm9.297 2.184c0 .248-.016.472-.048.672h-5.052c.04.528.236.952.588 1.272.352.32.784.48 1.296.48.736 0 1.256-.308 1.56-.924h1.476a2.998 2.998 0 0 1-1.092 1.5c-.52.384-1.168.576-1.944.576-.632 0-1.2-.14-1.704-.42a3.139 3.139 0 0 1-1.176-1.2c-.28-.52-.42-1.12-.42-1.8 0-.68.136-1.276.408-1.788.28-.52.668-.92 1.164-1.2.504-.28 1.08-.42 1.728-.42.624 0 1.18.136 1.668.408.488.272.868.656 1.14 1.152.272.488.408 1.052.408 1.692Zm-1.428-.432c-.008-.504-.188-.908-.54-1.212-.352-.304-.788-.456-1.308-.456-.472 0-.876.152-1.212.456-.336.296-.536.7-.6 1.212h3.66Zm8.834.432c0 .248-.016.472-.047.672h-5.052c.04.528.236.952.587 1.272.352.32.784.48 1.296.48.737 0 1.257-.308 1.56-.924h1.477a2.998 2.998 0 0 1-1.093 1.5c-.52.384-1.168.576-1.944.576-.632 0-1.2-.14-1.703-.42a3.139 3.139 0 0 1-1.176-1.2c-.28-.52-.42-1.12-.42-1.8 0-.68.135-1.276.407-1.788.28-.52.668-.92 1.165-1.2.504-.28 1.08-.42 1.728-.42.623 0 1.18.136 1.668.408.488.272.868.656 1.14 1.152.272.488.407 1.052.407 1.692Zm-1.428-.432c-.007-.504-.188-.908-.54-1.212-.352-.304-.788-.456-1.308-.456-.471 0-.875.152-1.212.456-.336.296-.535.7-.6 1.212h3.66Zm5.688-2.688c.048-.744.332-1.324.852-1.74.528-.416 1.2-.624 2.016-.624.56 0 1.044.1 1.452.3.408.2.716.472.924.816.208.344.312.732.312 1.164 0 .496-.132.92-.396 1.272s-.58.588-.948.708v.048c.472.144.84.408 1.104.792.264.376.396.86.396 1.452 0 .472-.108.892-.324 1.26-.216.368-.536.66-.96.876-.424.208-.932.312-1.524.312-.864 0-1.576-.22-2.136-.66-.552-.448-.848-1.088-.888-1.92h1.32c.032.424.196.772.492 1.044.296.264.696.396 1.2.396.488 0 .864-.132 1.128-.396.264-.272.396-.62.396-1.044 0-.56-.18-.956-.54-1.188-.352-.24-.896-.36-1.632-.36h-.312v-1.128h.324c.648-.008 1.14-.116 1.476-.324.344-.208.516-.536.516-.984 0-.384-.124-.688-.372-.912-.248-.232-.6-.348-1.056-.348-.448 0-.796.116-1.044.348a1.356 1.356 0 0 0-.444.84h-1.332Zm7.149 2.1c0-1.384.232-2.464.696-3.24.472-.784 1.28-1.176 2.424-1.176s1.948.392 2.412 1.176c.472.776.708 1.856.708 3.24 0 1.4-.236 2.496-.708 3.288-.464.784-1.268 1.176-2.412 1.176s-1.952-.392-2.424-1.176c-.464-.792-.696-1.888-.696-3.288Zm4.896 0c0-.648-.044-1.196-.132-1.644-.08-.448-.248-.812-.504-1.092-.256-.288-.636-.432-1.14-.432-.504 0-.884.144-1.14.432-.256.28-.428.644-.516 1.092-.08.448-.12.996-.12 1.644 0 .672.04 1.236.12 1.692.08.456.248.824.504 1.104.264.28.648.42 1.152.42.504 0 .884-.14 1.14-.42.264-.28.436-.648.516-1.104.08-.456.12-1.02.12-1.692Zm8.813-3.852c.888 0 1.664.172 2.328.516a3.558 3.558 0 0 1 1.548 1.464c.368.632.552 1.372.552 2.22 0 .848-.184 1.584-.552 2.208a3.598 3.598 0 0 1-1.548 1.44c-.664.328-1.44.492-2.328.492h-2.724v-8.34h2.724Zm0 7.224c.976 0 1.724-.264 2.244-.792.52-.528.78-1.272.78-2.232 0-.968-.26-1.724-.78-2.268-.52-.544-1.268-.816-2.244-.816h-1.356v6.108h1.356Zm5.327-2.22c0-.664.136-1.252.408-1.764a3.047 3.047 0 0 1 2.712-1.62c.52 0 .972.104 1.356.312.392.2.704.452.936.756v-.96h1.38V151h-1.38v-.984a2.717 2.717 0 0 1-.948.78c-.4.208-.856.312-1.368.312a2.938 2.938 0 0 1-1.56-.432 3.206 3.206 0 0 1-1.128-1.224c-.272-.528-.408-1.124-.408-1.788Zm5.412.024c0-.456-.096-.852-.288-1.188a1.938 1.938 0 0 0-.732-.768 1.93 1.93 0 0 0-.984-.264c-.352 0-.68.088-.984.264-.304.168-.552.42-.744.756-.184.328-.276.72-.276 1.176 0 .456.092.856.276 1.2.192.344.44.608.744.792a1.974 1.974 0 0 0 1.968 0c.304-.176.548-.432.732-.768.192-.344.288-.744.288-1.2Zm9.129-3.3-4.056 9.72h-1.416l1.344-3.216-2.604-6.504h1.524l1.86 5.04 1.932-5.04h1.416Zm3.433 6.72c-.52 0-.988-.092-1.404-.276a2.536 2.536 0 0 1-.972-.768 1.943 1.943 0 0 1-.384-1.092h1.416a.99.99 0 0 0 .396.708c.248.184.556.276.924.276.384 0 .68-.072.888-.216.216-.152.324-.344.324-.576 0-.248-.12-.432-.36-.552-.232-.12-.604-.252-1.116-.396a10.83 10.83 0 0 1-1.212-.396 2.176 2.176 0 0 1-.816-.588c-.224-.264-.336-.612-.336-1.044 0-.352.104-.672.312-.96.208-.296.504-.528.888-.696.392-.168.84-.252 1.344-.252.752 0 1.356.192 1.812.576.464.376.712.892.744 1.548h-1.368a.974.974 0 0 0-.36-.708c-.216-.176-.508-.264-.876-.264-.36 0-.636.068-.828.204a.632.632 0 0 0-.288.54c0 .176.064.324.192.444s.284.216.468.288c.184.064.456.148.816.252.48.128.872.26 1.176.396.312.128.58.32.804.576.224.256.34.596.348 1.02 0 .376-.104.712-.312 1.008-.208.296-.504.528-.888.696-.376.168-.82.252-1.332.252Zm9.851-8.448c.888 0 1.664.172 2.328.516a3.558 3.558 0 0 1 1.548 1.464c.368.632.552 1.372.552 2.22 0 .848-.184 1.584-.552 2.208a3.598 3.598 0 0 1-1.548 1.44c-.664.328-1.44.492-2.328.492h-2.724v-8.34h2.724Zm0 7.224c.976 0 1.724-.264 2.244-.792.52-.528.78-1.272.78-2.232 0-.968-.26-1.724-.78-2.268-.52-.544-1.268-.816-2.244-.816h-1.356v6.108h1.356Zm11.844-2.352c0 .248-.016.472-.048.672h-5.052c.04.528.236.952.588 1.272.352.32.784.48 1.296.48.736 0 1.256-.308 1.56-.924h1.476a2.998 2.998 0 0 1-1.092 1.5c-.52.384-1.168.576-1.944.576-.632 0-1.2-.14-1.704-.42a3.139 3.139 0 0 1-1.176-1.2c-.28-.52-.42-1.12-.42-1.8 0-.68.136-1.276.408-1.788.28-.52.668-.92 1.164-1.2.504-.28 1.08-.42 1.728-.42.624 0 1.18.136 1.668.408.488.272.868.656 1.14 1.152.272.488.408 1.052.408 1.692Zm-1.428-.432c-.008-.504-.188-.908-.54-1.212-.352-.304-.788-.456-1.308-.456-.472 0-.876.152-1.212.456-.336.296-.536.7-.6 1.212h3.66Zm4.142-4.98V151h-1.368v-8.88h1.368Zm2.492 1.392a.847.847 0 0 1-.624-.252.847.847 0 0 1-.252-.624c0-.248.084-.456.252-.624a.847.847 0 0 1 .624-.252c.24 0 .444.084.612.252a.847.847 0 0 1 .252.624.847.847 0 0 1-.252.624.833.833 0 0 1-.612.252Zm.672.876V151h-1.368v-6.612h1.368Zm4.352 5.388 1.872-5.388h1.452l-2.52 6.612h-1.632l-2.508-6.612h1.464l1.872 5.388Zm10.418-2.244c0 .248-.016.472-.048.672h-5.052c.04.528.236.952.588 1.272.352.32.784.48 1.296.48.736 0 1.256-.308 1.56-.924h1.476a2.998 2.998 0 0 1-1.092 1.5c-.52.384-1.168.576-1.944.576-.632 0-1.2-.14-1.704-.42a3.139 3.139 0 0 1-1.176-1.2c-.28-.52-.42-1.12-.42-1.8 0-.68.136-1.276.408-1.788.28-.52.668-.92 1.164-1.2.504-.28 1.08-.42 1.728-.42.624 0 1.18.136 1.668.408.488.272.868.656 1.14 1.152.272.488.408 1.052.408 1.692Zm-1.428-.432c-.008-.504-.188-.908-.54-1.212-.352-.304-.788-.456-1.308-.456-.472 0-.876.152-1.212.456-.336.296-.536.7-.6 1.212h3.66Zm4.142-1.752c.2-.336.464-.596.792-.78.336-.192.732-.288 1.188-.288v1.416h-.348c-.536 0-.944.136-1.224.408-.272.272-.408.744-.408 1.416V151h-1.368v-6.612h1.368v.96Zm9.19-.96-4.056 9.72h-1.416l1.344-3.216-2.604-6.504h1.524l1.86 5.04 1.932-5.04h1.416Zm8.482 6.612-1.92-3.336h-1.044V151h-1.368v-8.34h2.88c.64 0 1.18.112 1.62.336.448.224.78.524.996.9.224.376.336.796.336 1.26 0 .544-.16 1.04-.48 1.488-.312.44-.796.74-1.452.9l2.064 3.456h-1.632Zm-2.964-4.428h1.512c.512 0 .896-.128 1.152-.384.264-.256.396-.6.396-1.032 0-.432-.128-.768-.384-1.008-.256-.248-.644-.372-1.164-.372h-1.512v2.796Zm12.274.96c0 .248-.016.472-.048.672h-5.052c.04.528.236.952.588 1.272.352.32.784.48 1.296.48.736 0 1.256-.308 1.56-.924h1.476a2.998 2.998 0 0 1-1.092 1.5c-.52.384-1.168.576-1.944.576-.632 0-1.2-.14-1.704-.42a3.139 3.139 0 0 1-1.176-1.2c-.28-.52-.42-1.12-.42-1.8 0-.68.136-1.276.408-1.788.28-.52.668-.92 1.164-1.2.504-.28 1.08-.42 1.728-.42.624 0 1.18.136 1.668.408.488.272.868.656 1.14 1.152.272.488.408 1.052.408 1.692Zm-1.428-.432c-.008-.504-.188-.908-.54-1.212-.352-.304-.788-.456-1.308-.456-.472 0-.876.152-1.212.456-.336.296-.536.7-.6 1.212h3.66Zm4.37-1.596v3.66c0 .248.056.428.168.54.12.104.32.156.6.156h.84V151h-1.08c-.616 0-1.088-.144-1.416-.432-.328-.288-.492-.756-.492-1.404v-3.66h-.78v-1.116h.78v-1.644h1.38v1.644h1.608v1.116h-1.608Zm8.857-1.116V151h-1.368v-.78c-.216.272-.5.488-.852.648a2.7 2.7 0 0 1-1.104.228c-.52 0-.988-.108-1.404-.324a2.388 2.388 0 0 1-.972-.96c-.232-.424-.348-.936-.348-1.536v-3.888h1.356v3.684c0 .592.148 1.048.444 1.368.296.312.7.468 1.212.468s.916-.156 1.212-.468c.304-.32.456-.776.456-1.368v-3.684h1.368Zm3.173.96c.2-.336.464-.596.792-.78.336-.192.732-.288 1.188-.288v1.416h-.348c-.536 0-.944.136-1.224.408-.272.272-.408.744-.408 1.416V151h-1.368v-6.612h1.368v.96Zm6.573-1.068c.52 0 .984.108 1.392.324.416.216.74.536.972.96.232.424.348.936.348 1.536v3.9h-1.356v-3.696c0-.592-.148-1.044-.444-1.356-.296-.32-.7-.48-1.212-.48s-.92.16-1.224.48c-.296.312-.444.764-.444 1.356V151h-1.368v-6.612h1.368v.756c.224-.272.508-.484.852-.636a2.785 2.785 0 0 1 1.116-.228Zm6.857 6.828c-.52 0-.988-.092-1.404-.276a2.536 2.536 0 0 1-.972-.768 1.943 1.943 0 0 1-.384-1.092h1.416a.99.99 0 0 0 .396.708c.248.184.556.276.924.276.384 0 .68-.072.888-.216.216-.152.324-.344.324-.576 0-.248-.12-.432-.36-.552-.232-.12-.604-.252-1.116-.396a10.83 10.83 0 0 1-1.212-.396 2.176 2.176 0 0 1-.816-.588c-.224-.264-.336-.612-.336-1.044 0-.352.104-.672.312-.96.208-.296.504-.528.888-.696.392-.168.84-.252 1.344-.252.752 0 1.356.192 1.812.576.464.376.712.892.744 1.548h-1.368a.974.974 0 0 0-.36-.708c-.216-.176-.508-.264-.876-.264-.36 0-.636.068-.828.204a.632.632 0 0 0-.288.54c0 .176.064.324.192.444s.284.216.468.288c.184.064.456.148.816.252.48.128.872.26 1.176.396.312.128.58.32.804.576.224.256.34.596.348 1.02 0 .376-.104.712-.312 1.008-.208.296-.504.528-.888.696-.376.168-.82.252-1.332.252Zm4.562-.024a.847.847 0 0 1-.624-.252.847.847 0 0 1-.252-.624c0-.248.084-.456.252-.624a.847.847 0 0 1 .624-.252c.24 0 .444.084.612.252a.847.847 0 0 1 .252.624.847.847 0 0 1-.252.624.833.833 0 0 1-.612.252Zm8.184-8.424c.888 0 1.664.172 2.328.516a3.558 3.558 0 0 1 1.548 1.464c.368.632.552 1.372.552 2.22 0 .848-.184 1.584-.552 2.208a3.598 3.598 0 0 1-1.548 1.44c-.664.328-1.44.492-2.328.492h-2.724v-8.34h2.724Zm0 7.224c.976 0 1.724-.264 2.244-.792.52-.528.78-1.272.78-2.232 0-.968-.26-1.724-.78-2.268-.52-.544-1.268-.816-2.244-.816h-1.356v6.108h1.356Zm11.844-2.352c0 .248-.016.472-.048.672h-5.052c.04.528.236.952.588 1.272.352.32.784.48 1.296.48.736 0 1.256-.308 1.56-.924h1.476a2.998 2.998 0 0 1-1.092 1.5c-.52.384-1.168.576-1.944.576-.632 0-1.2-.14-1.704-.42a3.139 3.139 0 0 1-1.176-1.2c-.28-.52-.42-1.12-.42-1.8 0-.68.136-1.276.408-1.788.28-.52.668-.92 1.164-1.2.504-.28 1.08-.42 1.728-.42.624 0 1.18.136 1.668.408.488.272.868.656 1.14 1.152.272.488.408 1.052.408 1.692Zm-1.428-.432c-.008-.504-.188-.908-.54-1.212-.352-.304-.788-.456-1.308-.456-.472 0-.876.152-1.212.456-.336.296-.536.7-.6 1.212h3.66Zm4.37-1.596v3.66c0 .248.056.428.168.54.12.104.32.156.6.156h.84V151h-1.08c-.616 0-1.088-.144-1.416-.432-.328-.288-.492-.756-.492-1.404v-3.66h-.78v-1.116h.78v-1.644h1.38v1.644h1.608v1.116h-1.608Zm2.413 2.16c0-.664.136-1.252.408-1.764a3.047 3.047 0 0 1 2.712-1.62c.52 0 .972.104 1.356.312.392.2.704.452.936.756v-.96h1.38V151h-1.38v-.984a2.717 2.717 0 0 1-.948.78c-.4.208-.856.312-1.368.312a2.938 2.938 0 0 1-1.56-.432 3.206 3.206 0 0 1-1.128-1.224c-.272-.528-.408-1.124-.408-1.788Zm5.412.024c0-.456-.096-.852-.288-1.188a1.938 1.938 0 0 0-.732-.768 1.93 1.93 0 0 0-.984-.264c-.352 0-.68.088-.984.264-.304.168-.552.42-.744.756-.184.328-.276.72-.276 1.176 0 .456.092.856.276 1.2.192.344.44.608.744.792a1.974 1.974 0 0 0 1.968 0c.304-.176.548-.432.732-.768.192-.344.288-.744.288-1.2Zm3.873-4.176a.847.847 0 0 1-.624-.252.847.847 0 0 1-.252-.624c0-.248.084-.456.252-.624a.847.847 0 0 1 .624-.252c.24 0 .444.084.612.252a.847.847 0 0 1 .252.624.847.847 0 0 1-.252.624.833.833 0 0 1-.612.252Zm.672.876V151h-1.368v-6.612h1.368Zm3.164-2.268V151h-1.368v-8.88h1.368Zm4.196 8.988c-.52 0-.988-.092-1.404-.276a2.536 2.536 0 0 1-.972-.768 1.943 1.943 0 0 1-.384-1.092h1.416a.99.99 0 0 0 .396.708c.248.184.556.276.924.276.384 0 .68-.072.888-.216.216-.152.324-.344.324-.576 0-.248-.12-.432-.36-.552-.232-.12-.604-.252-1.116-.396a10.83 10.83 0 0 1-1.212-.396 2.176 2.176 0 0 1-.816-.588c-.224-.264-.336-.612-.336-1.044 0-.352.104-.672.312-.96.208-.296.504-.528.888-.696.392-.168.84-.252 1.344-.252.752 0 1.356.192 1.812.576.464.376.712.892.744 1.548h-1.368a.974.974 0 0 0-.36-.708c-.216-.176-.508-.264-.876-.264-.36 0-.636.068-.828.204a.632.632 0 0 0-.288.54c0 .176.064.324.192.444s.284.216.468.288c.184.064.456.148.816.252.48.128.872.26 1.176.396.312.128.58.32.804.576.224.256.34.596.348 1.02 0 .376-.104.712-.312 1.008-.208.296-.504.528-.888.696-.376.168-.82.252-1.332.252Zm-38.14 1.092h41.248v.6h-41.248v-.6Z"/>
  <defs>
    <clipPath id="a">
      <path fill="#fff" d="M16 29h40v40H16z"/>
    </clipPath>
    <clipPath id="b">
      <path fill="#fff" d="M16 111h40v40H16z"/>
    </clipPath>
  </defs>
</svg>
